<?xml version="1.0" encoding="utf-8"?>
<!-- Generator: Adobe Illustrator 19.1.0, SVG Export Plug-In . SVG Version: 6.00 Build 0)  -->
<svg version="1.1" id="Layer_1" xmlns="http://www.w3.org/2000/svg" xmlns:xlink="http://www.w3.org/1999/xlink" x="0px" y="0px"
	 viewBox="0 0 644 515.9" style="enable-background:new 0 0 644 515.9;" xml:space="preserve">
<style type="text/css">
	.st0{fill:#FFCC33;}
	.st1{fill:none;stroke:#000000;stroke-miterlimit:10;}
	.st2{fill:#888888;}
	.st3{fill:#FFFFFF;stroke:#000000;stroke-miterlimit:10;}
	.st4{fill:#FFFFFF;}
	.st5{fill:#231F20;}
	.st6{fill:#FFCC33;stroke:#000000;stroke-miterlimit:10;}
	.st7{font-family:'Arial-BoldMT';}
	.st8{font-size:10.5px;}
	.st9{fill:none;}
	.st10{font-family:'ArialMT';}
	.st11{font-size:10px;}
</style>
<rect x="249" y="219.6" class="st2" width="70.9" height="70.9"/>
<rect x="325" y="219.6" class="st0" width="70.9" height="70.9"/>
<text transform="matrix(1 0 0 1 349.0133 257.9988)" class="st7 st8">Fine</text>
<text transform="matrix(1 0 0 1 270.8941 245.9958)"><tspan x="0" y="0" class="st4 st7 st8">Audit</tspan><tspan x="-13.4" y="12.6" class="st4 st7 st8">probability</tspan><tspan x="2.9" y="25.2" class="st4 st7 st8">25%</tspan></text>
<rect x="35.9" y="35.8" class="st9" width="570.7" height="69.3"/>
<text transform="matrix(1 0 0 1 35.8567 43.3515)" class="st7 st8">Audit probability</text>
<rect x="249" y="143.1" class="st2" width="70.9" height="70.9"/>
<rect x="325" y="143.1" class="st2" width="70.9" height="70.9"/>
<rect x="249" y="383.7" class="st1" width="70.9" height="28.3"/>
<rect x="325" y="383.7" class="st6" width="70.9" height="28.3"/>
<text transform="matrix(1 0 0 1 267.7751 401.25)" class="st10 st11">Pay tax</text>
<text transform="matrix(1 0 0 1 329.775 401.25)" class="st7 st11">Don’t pay tax</text>
<text transform="matrix(1 0 0 1 266.3939 175.8333)"><tspan x="0" y="0" class="st4 st7 st8">Income</tspan><tspan x="-5.8" y="12.6" class="st4 st7 st8">1200 ECU</tspan></text>
<text transform="matrix(1 0 0 1 339.9361 170.8333)"><tspan x="0" y="0" class="st4 st7 st8">Tax due</tspan><tspan x="3.3" y="12.6" class="st4 st7 st8">30% = </tspan><tspan x="-1.5" y="25.2" class="st4 st7 st8">360 ECU</tspan></text>
<rect x="35" y="144" class="st9" width="169.4" height="214.7"/>
<text transform="matrix(1 0 0 1 35.0427 151.5264)"><tspan x="0" y="0" class="st10 st8">Example:</tspan><tspan x="0" y="12.6" class="st10 st8">In case of an audit probability of </tspan><tspan x="0" y="25.2" class="st10 st8">25%, there is a 1 in 4 chance to be </tspan><tspan x="0" y="37.8" class="st10 st8">audited. </tspan></text>
<rect x="29.8" y="465" class="st0" width="584.4" height="25.2"/>
<rect x="36" y="472.4" class="st9" width="573.2" height="26"/>
<text transform="matrix(1 0 0 1 36.0051 479.9418)" class="st7 st8">If you are audited and you have evaded the tax, you will be fined and end up with less than 840 ECU. </text>
<rect x="287" y="295.6" class="st2" width="70.9" height="70.9"/>
<text transform="matrix(1 0 0 1 299.4063 322.3333)"><tspan x="0" y="0" class="st4 st7 st8">Expected</tspan><tspan x="8.5" y="12.6" class="st4 st7 st8">value </tspan><tspan x="-5.5" y="25.2" class="st4 st7 st8">information</tspan></text>
</svg>
