<?xml version="1.0" encoding="utf-8"?>
<!-- Generator: Adobe Illustrator 19.1.0, SVG Export Plug-In . SVG Version: 6.00 Build 0)  -->
<svg version="1.1" id="Layer_1" xmlns="http://www.w3.org/2000/svg" xmlns:xlink="http://www.w3.org/1999/xlink" x="0px" y="0px"
	 viewBox="0 0 644 515.9" style="enable-background:new 0 0 644 515.9;" xml:space="preserve">
<style type="text/css">
	.st0{fill:none;stroke:#000000;stroke-miterlimit:10;}
	.st1{fill:#FFCC33;}
	.st2{fill:#888888;}
	.st3{fill:#FFFFFF;stroke:#000000;stroke-miterlimit:10;}
	.st4{fill:#FFFFFF;}
	.st5{fill:#231F20;}
	.st6{font-family:'Arial-BoldMT';}
	.st7{font-size:10.5px;}
	.st8{fill:none;}
	.st9{fill:#FFCC33;stroke:#000000;stroke-miterlimit:10;}
	.st10{font-size:10px;}
	.st11{font-family:'ArialMT';}
	.st12{fill:#ED1C24;}
</style>
<rect x="248.6" y="219.6" class="st2" width="70.9" height="70.9"/>
<rect x="324.6" y="219.6" class="st2" width="70.9" height="70.9"/>
<text transform="matrix(1 0 0 1 348.5766 257.9988)" class="st4 st6 st7">Fine</text>
<text transform="matrix(1 0 0 1 270.4575 245.9958)"><tspan x="0" y="0" class="st4 st6 st7">Audit</tspan><tspan x="-13.4" y="12.6" class="st4 st6 st7">probability</tspan><tspan x="2.9" y="25.2" class="st4 st6 st7">25%</tspan></text>
<rect x="35.4" y="35.8" class="st8" width="570.7" height="69.3"/>
<text transform="matrix(1 0 0 1 35.4199 43.3515)" class="st6 st7">Audit probability</text>
<rect x="248.6" y="143.1" class="st2" width="70.9" height="70.9"/>
<rect x="324.6" y="143.1" class="st2" width="70.9" height="70.9"/>
<rect x="248.6" y="383.7" class="st9" width="70.9" height="28.3"/>
<rect x="324.6" y="383.7" class="st0" width="70.9" height="28.3"/>
<text transform="matrix(1 0 0 1 266.3377 401.25)" class="st6 st10">Pay tax</text>
<text transform="matrix(1 0 0 1 330.3388 401.25)" class="st11 st10">Don’t pay tax</text>
<text transform="matrix(1 0 0 1 265.9572 175.8333)"><tspan x="0" y="0" class="st4 st6 st7">Income</tspan><tspan x="-5.8" y="12.6" class="st4 st6 st7">1200 ECU</tspan></text>
<text transform="matrix(1 0 0 1 339.4995 170.8333)"><tspan x="0" y="0" class="st4 st6 st7">Tax due</tspan><tspan x="3.3" y="12.6" class="st4 st6 st7">30% = </tspan><tspan x="-1.5" y="25.2" class="st4 st6 st7">360 ECU</tspan></text>
<rect x="34.6" y="144" class="st8" width="169.4" height="214.7"/>
<text transform="matrix(1 0 0 1 34.6059 151.5264)"><tspan x="0" y="0" class="st11 st7">Example:</tspan><tspan x="0" y="12.6" class="st11 st7">In case of an audit probability of </tspan><tspan x="0" y="25.2" class="st11 st7">25%, there is a 1 in 4 chance to be </tspan><tspan x="0" y="37.8" class="st11 st7">audited. </tspan></text>
<rect x="29.3" y="450.6" class="st1" width="584.4" height="39.5"/>
<rect x="35.6" y="459.9" class="st8" width="573.2" height="26"/>
<text transform="matrix(1 0 0 1 35.5683 467.4418)"><tspan x="0" y="0" class="st6 st7">If you are audited and you have paid the tax (30% = 360 ECU) on your income (1200 ECU), there are no </tspan><tspan x="0" y="12.6" class="st6 st7">consequences and you can keep 840 ECU.</tspan></text>
<rect x="323.9" y="219.3" class="st2" width="70.9" height="70.9"/>
<text transform="matrix(1 0 0 1 347.8533 257.7556)" class="st4 st6 st7">Fine</text>
</svg>
