<?xml version="1.0" encoding="utf-8"?>
<!-- Generator: Adobe Illustrator 19.1.0, SVG Export Plug-In . SVG Version: 6.00 Build 0)  -->
<svg version="1.1" id="Layer_1" xmlns="http://www.w3.org/2000/svg" xmlns:xlink="http://www.w3.org/1999/xlink" x="0px" y="0px"
	 viewBox="0 0 644 515.9" style="enable-background:new 0 0 644 515.9;" xml:space="preserve">
<style type="text/css">
	.st0{fill:none;stroke:#000000;stroke-miterlimit:10;}
	.st1{fill:#FFCC33;}
	.st2{fill:#888888;}
	.st3{fill:#FFFFFF;stroke:#000000;stroke-miterlimit:10;}
	.st4{fill:#FFFFFF;}
	.st5{fill:#231F20;}
	.st6{fill:#FFCC33;stroke:#000000;stroke-miterlimit:10;}
	.st7{font-family:'Arial-BoldMT';}
	.st8{font-size:10.5px;}
	.st9{fill:none;}
	.st10{font-family:'ArialMT';}
	.st11{font-size:10px;}
	.st12{fill:#ED1C24;}
</style>
<polyline class="st0" points="270.2,144.7 270.2,121.7 373.4,121.7 373.4,145.1 "/>
<polyline class="st0" points="246.7,330.9 226.5,330.9 226.5,178.7 249.8,178.7 "/>
<rect x="30.3" y="151.9" class="st1" width="172.1" height="67.1"/>
<rect x="248.9" y="219.4" class="st2" width="70.9" height="70.9"/>
<rect x="324.9" y="219.4" class="st2" width="70.9" height="70.9"/>
<text transform="matrix(1 0 0 1 348.9205 251.5324)"><tspan x="0" y="0" class="st4 st7 st8">Fine</tspan><tspan x="-10.5" y="12.6" class="st4 st7 st8">720 ECU</tspan></text>
<text transform="matrix(1 0 0 1 270.8014 245.8627)"><tspan x="0" y="0" class="st4 st7 st8">Audit</tspan><tspan x="-13.4" y="12.6" class="st4 st7 st8">probability</tspan><tspan x="2.9" y="25.2" class="st4 st7 st8">25%</tspan></text>
<rect x="35.8" y="35.7" class="st9" width="570.7" height="74.7"/>
<text transform="matrix(1 0 0 1 35.7633 43.2184)"><tspan x="0" y="0" class="st7 st8">Sure outcome</tspan><tspan x="0" y="25.2" class="st10 st8">.</tspan></text>
<rect x="248.9" y="142.9" class="st2" width="70.9" height="70.9"/>
<rect x="324.9" y="142.9" class="st2" width="70.9" height="70.9"/>
<rect x="248.9" y="383.5" class="st6" width="70.9" height="28.3"/>
<rect x="324.9" y="383.5" class="st0" width="70.9" height="28.3"/>
<text transform="matrix(1 0 0 1 267.6822 401.1168)" class="st7 st11">Pay tax</text>
<text transform="matrix(1 0 0 1 329.6819 401.1168)" class="st10 st11">Don’t pay tax</text>
<text transform="matrix(1 0 0 1 266.3011 175.7001)"><tspan x="0" y="0" class="st4 st7 st8">Income</tspan><tspan x="-5.8" y="12.6" class="st4 st7 st8">1200 ECU</tspan></text>
<text transform="matrix(1 0 0 1 339.8434 170.7001)"><tspan x="0" y="0" class="st4 st7 st8">Tax due</tspan><tspan x="3.3" y="12.6" class="st4 st7 st8">30% = </tspan><tspan x="-1.5" y="25.2" class="st4 st7 st8">360 ECU</tspan></text>
<rect x="41.5" y="142.7" class="st9" width="169.4" height="214.7"/>
<text transform="matrix(1 0 0 1 41.4832 150.2064)"><tspan x="0" y="0" class="st10 st8">Example:</tspan><tspan x="0" y="12.6" class="st7 st8">If you pay the tax, the sure </tspan><tspan x="0" y="25.2" class="st7 st8">outcome is calculated by </tspan><tspan x="0" y="37.8" class="st7 st8">subtracting the tax (30% = 360 </tspan><tspan x="0" y="50.4" class="st7 st8">ECU) from the income (1200 </tspan><tspan x="0" y="63" class="st7 st8">ECU), which makes 840 ECU. </tspan><tspan x="0" y="88.2" class="st10 st8">  </tspan></text>
<rect x="286.6" y="108.4" class="st1" width="70.9" height="28.3"/>
<text transform="matrix(1 0 0 1 301.8876 126.0067)" class="st7 st8">360 ECU</text>
<polygon points="245.6,330.9 245.6,328.8 247.3,329.8 249.1,330.9 247.3,331.9 245.6,332.9 "/>
<rect x="258.5" y="315.7" class="st1" width="51.2" height="30.8"/>
<text transform="matrix(1 0 0 1 275.4123 328.3621)"><tspan x="0" y="0" class="st7 st8">840</tspan><tspan x="-2.3" y="12.6" class="st7 st8">ECU</tspan></text>
</svg>
