<?xml version="1.0" encoding="utf-8"?>
<!-- Generator: Adobe Illustrator 19.1.0, SVG Export Plug-In . SVG Version: 6.00 Build 0)  -->
<svg version="1.1" id="Layer_1" xmlns="http://www.w3.org/2000/svg" xmlns:xlink="http://www.w3.org/1999/xlink" x="0px" y="0px"
	 viewBox="0 0 644 515.9" style="enable-background:new 0 0 644 515.9;" xml:space="preserve">
<style type="text/css">
	.st0{fill:none;stroke:#000000;stroke-miterlimit:10;}
	.st1{fill:#FFCC33;}
	.st2{fill:#888888;}
	.st3{fill:#FFFFFF;stroke:#000000;stroke-miterlimit:10;}
	.st4{fill:#FFFFFF;}
	.st5{fill:#231F20;}
	.st6{fill:#FFCC33;stroke:#000000;stroke-miterlimit:10;}
	.st7{font-family:'Arial-BoldMT';}
	.st8{font-size:10.5px;}
	.st9{fill:none;}
	.st10{font-family:'ArialMT';}
	.st11{font-size:10px;}
	.st12{fill:#ED1C24;}
</style>
<rect x="248.9" y="219.4" class="st2" width="70.9" height="70.9"/>
<rect x="324.9" y="219.4" class="st2" width="70.9" height="70.9"/>
<text transform="matrix(1 0 0 1 348.8904 251.5324)"><tspan x="0" y="0" class="st4 st7 st8">Fine</tspan><tspan x="-10.5" y="12.6" class="st4 st7 st8">720 ECU</tspan></text>
<text transform="matrix(1 0 0 1 270.7713 245.8627)"><tspan x="0" y="0" class="st4 st7 st8">Audit</tspan><tspan x="-13.4" y="12.6" class="st4 st7 st8">probability</tspan><tspan x="2.9" y="25.2" class="st4 st7 st8">25%</tspan></text>
<rect x="41.7" y="35.7" class="st9" width="570.7" height="74.7"/>
<text transform="matrix(1 0 0 1 41.7332 43.2184)"><tspan x="0" y="0" class="st7 st8">Comparison</tspan><tspan x="0" y="12.6" class="st10 st8">From a purely financial viewpoint, if the expected value exceeds the sure outcome, it is attractive to evade the tax. If, on </tspan><tspan x="0" y="25.2" class="st10 st8">the other hand, the expected value is lower than the sure outcome, it is attractive to pay the tax. Comparing the sure </tspan><tspan x="0" y="37.8" class="st10 st8">outcome to the expected value can therefore be helpful, if one wants to make financially optimal decisions.</tspan></text>
<rect x="248.9" y="142.9" class="st2" width="70.9" height="70.9"/>
<rect x="324.9" y="142.9" class="st2" width="70.9" height="70.9"/>
<rect x="248.9" y="383.5" class="st0" width="70.9" height="28.3"/>
<rect x="324.9" y="383.5" class="st6" width="70.9" height="28.3"/>
<text transform="matrix(1 0 0 1 267.6522 401.1168)" class="st10 st11">Pay tax</text>
<text transform="matrix(1 0 0 1 328.6513 401.1168)" class="st7 st11">Don’t pay tax</text>
<text transform="matrix(1 0 0 1 266.2711 175.7001)"><tspan x="0" y="0" class="st4 st7 st8">Income</tspan><tspan x="-5.8" y="12.6" class="st4 st7 st8">1200 ECU</tspan></text>
<text transform="matrix(1 0 0 1 339.8133 170.7001)"><tspan x="0" y="0" class="st4 st7 st8">Tax due</tspan><tspan x="3.3" y="12.6" class="st4 st7 st8">30% = </tspan><tspan x="-1.5" y="25.2" class="st4 st7 st8">360 ECU</tspan></text>
<rect x="29.5" y="450.9" class="st1" width="584.4" height="52.1"/>
<rect x="41.7" y="460.2" class="st9" width="573.7" height="35.5"/>
<text transform="matrix(1 0 0 1 41.7266 467.7052)"><tspan x="0" y="0" class="st7 st8">Here you can see that the expected value of evasion is higher than the value of the sure outcome. This means that, </tspan><tspan x="0" y="12.6" class="st7 st8">from a purely financial viewpoint, it is attractive to evade the tax in this example. </tspan><tspan x="403.8" y="12.6" class="st12 st7 st8">Note that you do not have these </tspan><tspan x="0" y="25.2" class="st12 st7 st8">precalculated values in the real study, but you can decide based on this very same principle.</tspan></text>
<rect x="334.6" y="315.7" class="st1" width="51.2" height="30.8"/>
<text transform="matrix(1 0 0 1 347.111 328.3622)"><tspan x="0" y="0" class="st7 st8">1020 </tspan><tspan x="2.1" y="12.6" class="st7 st8">ECU</tspan></text>
<rect x="258.5" y="315.7" class="st1" width="51.2" height="30.8"/>
<text transform="matrix(1 0 0 1 275.4123 328.3621)"><tspan x="0" y="0" class="st7 st8">840</tspan><tspan x="-2.3" y="12.6" class="st7 st8">ECU</tspan></text>
</svg>
