<?xml version="1.0" encoding="utf-8"?>
<!-- Generator: Adobe Illustrator 19.1.0, SVG Export Plug-In . SVG Version: 6.00 Build 0)  -->
<svg version="1.1" id="Layer_1" xmlns="http://www.w3.org/2000/svg" xmlns:xlink="http://www.w3.org/1999/xlink" x="0px" y="0px"
	 viewBox="0 0 644 515.9" style="enable-background:new 0 0 644 515.9;" xml:space="preserve">
<style type="text/css">
	.st0{fill:none;stroke:#000000;stroke-miterlimit:10;}
	.st1{fill:#FFCC33;}
	.st2{fill:#888888;}
	.st3{fill:#FFFFFF;stroke:#000000;stroke-miterlimit:10;}
	.st4{fill:#FFFFFF;}
	.st5{fill:#231F20;}
	.st6{fill:#FFCC33;stroke:#000000;stroke-miterlimit:10;}
	.st7{font-family:'Arial-BoldMT';}
	.st8{font-size:10.5px;}
	.st9{fill:none;}
	.st10{font-family:'ArialMT';}
	.st11{font-size:10px;}
	.st12{fill:#ED1C24;}
</style>
<rect x="31.9" y="153.7" class="st1" width="166.9" height="42.5"/>
<rect x="248.7" y="219.6" class="st2" width="70.9" height="70.9"/>
<rect x="324.7" y="219.6" class="st2" width="70.9" height="70.9"/>
<text transform="matrix(1 0 0 1 348.65 257.9988)" class="st4 st7 st8">Fine</text>
<text transform="matrix(1 0 0 1 270.5309 245.9958)"><tspan x="0" y="0" class="st4 st7 st8">Audit</tspan><tspan x="-13.4" y="12.6" class="st4 st7 st8">probability</tspan><tspan x="2.9" y="25.2" class="st4 st7 st8">25%</tspan></text>
<rect x="35.5" y="35.8" class="st9" width="570.7" height="69.3"/>
<text transform="matrix(1 0 0 1 35.4935 43.3515)" class="st7 st8">Audit probability</text>
<rect x="248.6" y="143.1" class="st2" width="70.9" height="70.9"/>
<rect x="324.6" y="143.1" class="st2" width="70.9" height="70.9"/>
<rect x="248.6" y="383.7" class="st0" width="70.9" height="28.3"/>
<rect x="324.6" y="383.7" class="st6" width="70.9" height="28.3"/>
<text transform="matrix(1 0 0 1 267.412 401.25)" class="st10 st11">Pay tax</text>
<text transform="matrix(1 0 0 1 329.4117 401.25)" class="st7 st11">Don’t pay tax</text>
<text transform="matrix(1 0 0 1 266.0306 175.8333)"><tspan x="0" y="0" class="st4 st7 st8">Income</tspan><tspan x="-5.8" y="12.6" class="st4 st7 st8">1200 ECU</tspan></text>
<text transform="matrix(1 0 0 1 339.5729 170.8333)"><tspan x="0" y="0" class="st4 st7 st8">Tax due</tspan><tspan x="3.3" y="12.6" class="st4 st7 st8">30% = </tspan><tspan x="-1.5" y="25.2" class="st4 st7 st8">360 ECU</tspan></text>
<rect x="34.7" y="144" class="st9" width="169.4" height="214.7"/>
<text transform="matrix(1 0 0 1 34.6796 151.5264)"><tspan x="0" y="0" class="st10 st8">Example:</tspan><tspan x="0" y="12.6" class="st7 st8">Conversely, at an audit </tspan><tspan x="0" y="25.2" class="st7 st8">probability of 25%, with a 3 in 4 </tspan><tspan x="0" y="37.8" class="st7 st8">chance, you will not be audited. </tspan></text>
</svg>
