<?xml version="1.0" encoding="utf-8"?>
<!-- Generator: Adobe Illustrator 19.1.0, SVG Export Plug-In . SVG Version: 6.00 Build 0)  -->
<svg version="1.1" id="Layer_1" xmlns="http://www.w3.org/2000/svg" xmlns:xlink="http://www.w3.org/1999/xlink" x="0px" y="0px"
	 viewBox="0 0 644 515.9" style="enable-background:new 0 0 644 515.9;" xml:space="preserve">
<style type="text/css">
	.st0{fill:none;stroke:#000000;stroke-miterlimit:10;}
	.st1{fill:#FFCC33;}
	.st2{fill:#888888;}
	.st3{fill:#FFFFFF;stroke:#000000;stroke-miterlimit:10;}
	.st4{fill:#FFFFFF;}
	.st5{fill:#231F20;}
	.st6{fill:#FFCC33;stroke:#000000;stroke-miterlimit:10;}
	.st7{font-family:'Arial-BoldMT';}
	.st8{font-size:10.5px;}
	.st9{fill:none;}
	.st10{font-family:'ArialMT';}
	.st11{font-size:10px;}
</style>
<polyline class="st0" points="270.2,144.7 270.2,121.7 373.4,121.7 373.4,145.1 "/>
<rect x="31.6" y="153.5" class="st1" width="166.1" height="52.9"/>
<rect x="248.7" y="219.3" class="st2" width="70.9" height="70.9"/>
<rect x="324.7" y="219.3" class="st2" width="70.9" height="70.9"/>
<text transform="matrix(1 0 0 1 348.6266 251.4222)"><tspan x="0" y="0" class="st4 st7 st8">Fine</tspan><tspan x="-10.5" y="12.6" class="st4 st7 st8">720 ECU</tspan></text>
<text transform="matrix(1 0 0 1 270.5076 245.7525)"><tspan x="0" y="0" class="st4 st7 st8">Audit</tspan><tspan x="-13.4" y="12.6" class="st4 st7 st8">probability</tspan><tspan x="2.9" y="25.2" class="st4 st7 st8">25%</tspan></text>
<rect x="35.5" y="35.6" class="st9" width="570.7" height="69.3"/>
<text transform="matrix(1 0 0 1 35.4701 43.1082)" class="st7 st8">Fine</text>
<rect x="248.6" y="142.8" class="st2" width="70.9" height="70.9"/>
<rect x="324.6" y="142.8" class="st2" width="70.9" height="70.9"/>
<rect x="248.6" y="383.4" class="st0" width="70.9" height="28.3"/>
<rect x="324.6" y="383.4" class="st6" width="70.9" height="28.3"/>
<text transform="matrix(1 0 0 1 267.3886 401.0068)" class="st10 st11">Pay tax</text>
<text transform="matrix(1 0 0 1 328.3876 401.0068)" class="st7 st11">Don’t pay tax</text>
<text transform="matrix(1 0 0 1 266.0074 175.59)"><tspan x="0" y="0" class="st4 st7 st8">Income</tspan><tspan x="-5.8" y="12.6" class="st4 st7 st8">1200 ECU</tspan></text>
<text transform="matrix(1 0 0 1 339.5495 170.59)"><tspan x="0" y="0" class="st4 st7 st8">Tax due</tspan><tspan x="3.3" y="12.6" class="st4 st7 st8">30% = </tspan><tspan x="-1.5" y="25.2" class="st4 st7 st8">360 ECU</tspan></text>
<rect x="34.7" y="143.8" class="st9" width="169.4" height="214.7"/>
<text transform="matrix(1 0 0 1 34.6562 151.2831)"><tspan x="0" y="0" class="st10 st8">Example:</tspan><tspan x="0" y="12.6" class="st7 st8">At a fine rate of 100%, a tax rate </tspan><tspan x="0" y="25.2" class="st7 st8">of 30%, and an income of 1200 </tspan><tspan x="0" y="37.8" class="st7 st8">ECU, you will first have to pay </tspan><tspan x="0" y="50.4" class="st7 st8">back the tax of 360 ECU. </tspan></text>
<rect x="29.4" y="464.7" class="st1" width="584.4" height="25.2"/>
<rect x="35.6" y="472.2" class="st9" width="573.2" height="26"/>
<text transform="matrix(1 0 0 1 35.6186 479.6985)" class="st7 st8">If you are NOT audited and you have evaded the tax, you will keep the full income (1200 ECU). </text>
<rect x="286.6" y="108.4" class="st1" width="70.9" height="28.3"/>
<text transform="matrix(1 0 0 1 301.8876 126.0068)" class="st7 st8">360 ECU</text>
<rect x="323.9" y="219.3" class="st2" width="70.9" height="70.9"/>
<text transform="matrix(1 0 0 1 347.8533 257.7556)" class="st4 st7 st8">Fine</text>
</svg>
