<?xml version="1.0" encoding="utf-8"?>
<!-- Generator: Adobe Illustrator 19.1.0, SVG Export Plug-In . SVG Version: 6.00 Build 0)  -->
<svg version="1.1" id="Layer_1" xmlns="http://www.w3.org/2000/svg" xmlns:xlink="http://www.w3.org/1999/xlink" x="0px" y="0px"
	 viewBox="0 0 644 515.9" style="enable-background:new 0 0 644 515.9;" xml:space="preserve">
<style type="text/css">
	.st0{fill:none;stroke:#000000;stroke-miterlimit:10;}
	.st1{fill:#FFCC33;}
	.st2{fill:#888888;}
	.st3{fill:#FFFFFF;stroke:#000000;stroke-miterlimit:10;}
	.st4{fill:#FFFFFF;}
	.st5{font-family:'ArialMT';}
	.st6{font-size:10px;}
	.st7{fill:#231F20;}
	.st8{font-family:'Arial-BoldMT';}
	.st9{font-size:10.5px;}
	.st10{fill:none;}
	.st11{fill:#FFCC33;stroke:#000000;stroke-miterlimit:10;}
</style>
<rect x="32.1" y="153.2" class="st1" width="130.2" height="28.9"/>
<rect x="248.4" y="143.6" class="st1" width="70.9" height="70.9"/>
<rect x="324.4" y="143.6" class="st2" width="70.9" height="70.9"/>
<rect x="248.4" y="219.6" class="st2" width="70.9" height="70.9"/>
<rect x="324.4" y="219.6" class="st2" width="70.9" height="70.9"/>
<rect x="248.4" y="295.6" class="st2" width="70.9" height="70.9"/>
<rect x="324.4" y="295.6" class="st2" width="70.9" height="70.9"/>
<rect x="248.4" y="384.2" class="st0" width="70.9" height="28.3"/>
<rect x="324.4" y="384.2" class="st0" width="70.9" height="28.3"/>
<text transform="matrix(1 0 0 1 267.1906 401.75)" class="st5 st6">Pay tax</text>
<text transform="matrix(1 0 0 1 330.1912 401.75)" class="st5 st6">Don’t pay tax</text>
<text transform="matrix(1 0 0 1 265.8098 177.3321)"><tspan x="0" y="0" class="st7 st8 st9">Income</tspan><tspan x="-5.8" y="12.6" class="st7 st8 st9">1200 ECU</tspan></text>
<text transform="matrix(1 0 0 1 339.3519 183.3321)" class="st4 st8 st9">Tax due</text>
<text transform="matrix(1 0 0 1 348.3972 257.9988)" class="st4 st8 st9">Fine</text>
<text transform="matrix(1 0 0 1 271.0598 322.3333)"><tspan x="0" y="0" class="st4 st8 st9">Sure </tspan><tspan x="-10.5" y="12.6" class="st4 st8 st9">outcome:</tspan><tspan x="-5.3" y="25.2" class="st4 st8 st9">Pay tax</tspan></text>
<text transform="matrix(1 0 0 1 270.278 250.9988)"><tspan x="0" y="0" class="st4 st8 st9">Audit</tspan><tspan x="-13.4" y="12.6" class="st4 st8 st9">probability</tspan></text>
<text transform="matrix(1 0 0 1 335.8464 322.3333)"><tspan x="0" y="0" class="st4 st8 st9">Expected</tspan><tspan x="-6.7" y="12.6" class="st4 st8 st9">value: Don’t</tspan><tspan x="5.2" y="25.2" class="st4 st8 st9">pay tax</tspan></text>
<rect x="35.8" y="35.6" class="st10" width="570.7" height="69.3"/>
<text transform="matrix(1 0 0 1 35.7735 43.1016)" class="st8 st9">Income</text>
<rect x="35" y="143.8" class="st10" width="169.4" height="214.7"/>
<text transform="matrix(1 0 0 1 34.9595 151.2764)"><tspan x="0" y="0" class="st5 st9">Example:</tspan><tspan x="0" y="12.6" class="st8 st9">The income before tax is </tspan><tspan x="0" y="25.2" class="st8 st9">1200 ECU. </tspan></text>
<rect x="323.9" y="219.3" class="st2" width="70.9" height="70.9"/>
<text transform="matrix(1 0 0 1 347.8533 257.7556)" class="st4 st8 st9">Fine</text>
</svg>
