<?xml version="1.0" encoding="utf-8"?>
<!-- Generator: Adobe Illustrator 19.1.0, SVG Export Plug-In . SVG Version: 6.00 Build 0)  -->
<svg version="1.1" id="Layer_1" xmlns="http://www.w3.org/2000/svg" xmlns:xlink="http://www.w3.org/1999/xlink" x="0px" y="0px"
	 viewBox="0 0 644 515.9" style="enable-background:new 0 0 644 515.9;" xml:space="preserve">
<style type="text/css">
	.st0{fill:none;stroke:#000000;stroke-miterlimit:10;}
	.st1{fill:#FFCC33;}
	.st2{fill:#888888;}
	.st3{fill:#FFFFFF;stroke:#000000;stroke-miterlimit:10;}
	.st4{fill:#FFFFFF;}
	.st5{fill:#231F20;}
	.st6{fill:#FFCC33;stroke:#000000;stroke-miterlimit:10;}
	.st7{font-family:'Arial-BoldMT';}
	.st8{font-size:10.5px;}
	.st9{fill:none;}
	.st10{font-family:'ArialMT';}
	.st11{font-size:10px;}
</style>
<rect x="433.1" y="270.8" class="st1" width="80.5" height="30.8"/>
<rect x="432.9" y="137.8" class="st1" width="171.3" height="69.9"/>
<rect x="243.9" y="216.8" class="st1" width="156.8" height="76.3"/>
<rect x="248.7" y="219.7" class="st2" width="70.9" height="70.9"/>
<rect x="324.7" y="219.7" class="st2" width="70.9" height="70.9"/>
<text transform="matrix(1 0 0 1 348.6767 251.8456)"><tspan x="0" y="0" class="st4 st7 st8">Fine</tspan><tspan x="-10.5" y="12.6" class="st4 st7 st8">720 ECU</tspan></text>
<text transform="matrix(1 0 0 1 270.5577 246.1759)"><tspan x="0" y="0" class="st4 st7 st8">Audit</tspan><tspan x="-13.4" y="12.6" class="st4 st7 st8">probability</tspan><tspan x="2.9" y="25.2" class="st4 st7 st8">25%</tspan></text>
<rect x="35.5" y="36" class="st9" width="570.7" height="74.7"/>
<text transform="matrix(1 0 0 1 35.5196 43.5316)"><tspan x="0" y="0" class="st7 st8">Expected value: Do not pay tax</tspan><tspan x="0" y="12.6" class="st10 st8">.</tspan></text>
<rect x="248.7" y="143.2" class="st2" width="70.9" height="70.9"/>
<rect x="324.7" y="143.2" class="st2" width="70.9" height="70.9"/>
<rect x="248.7" y="295.2" class="st2" width="70.9" height="70.9"/>
<rect x="324.7" y="295.2" class="st2" width="70.9" height="70.9"/>
<rect x="248.7" y="383.8" class="st0" width="70.9" height="28.3"/>
<rect x="324.7" y="383.8" class="st6" width="70.9" height="28.3"/>
<text transform="matrix(1 0 0 1 267.4385 401.4301)" class="st10 st11">Pay tax</text>
<text transform="matrix(1 0 0 1 328.4376 401.4301)" class="st7 st11">Don’t pay tax</text>
<text transform="matrix(1 0 0 1 266.0574 176.0133)"><tspan x="0" y="0" class="st4 st7 st8">Income</tspan><tspan x="-5.8" y="12.6" class="st4 st7 st8">1200 ECU</tspan></text>
<text transform="matrix(1 0 0 1 339.5995 171.0133)"><tspan x="0" y="0" class="st4 st7 st8">Tax due</tspan><tspan x="3.3" y="12.6" class="st4 st7 st8">30% = </tspan><tspan x="-1.5" y="25.2" class="st4 st7 st8">360 ECU</tspan></text>
<text transform="matrix(1 0 0 1 271.3074 322.0135)"><tspan x="0" y="0" class="st4 st7 st8">Sure </tspan><tspan x="-10.5" y="12.6" class="st4 st7 st8">outcome:</tspan><tspan x="-5.3" y="25.2" class="st4 st7 st8">Pay tax</tspan></text>
<text transform="matrix(1 0 0 1 336.0939 322.0135)"><tspan x="0" y="0" class="st4 st7 st8">Expected</tspan><tspan x="-6.7" y="12.6" class="st4 st7 st8">value: Don’t</tspan><tspan x="5.2" y="25.2" class="st4 st7 st8">pay tax</tspan></text>
<rect x="35.2" y="143" class="st9" width="169.4" height="214.7"/>
<text transform="matrix(1 0 0 1 35.2396 150.5198)"><tspan x="0" y="0" class="st10 st8">Example:</tspan><tspan x="0" y="12.6" class="st10 st8">If you do not pay the tax of 30% = </tspan><tspan x="0" y="25.2" class="st10 st8">360 ECU on your gross income of </tspan><tspan x="0" y="37.8" class="st10 st8">1200 ECU, there are two possible </tspan><tspan x="0" y="50.4" class="st10 st8">outcomes:</tspan><tspan x="0" y="63" class="st10 st8"> </tspan><tspan x="0" y="75.6" class="st10 st8">1.  With a probability of 25% you will </tspan><tspan x="15" y="88.2" class="st10 st8">be audited and have to pay the </tspan><tspan x="15" y="100.8" class="st10 st8">fine of 720 ECU. In this case you </tspan><tspan x="15" y="113.4" class="st10 st8">can keep 480 ECU of your </tspan><tspan x="15" y="126" class="st10 st8">income (1200 ECU).</tspan><tspan x="0" y="151.2" class="st10 st8">2.  With the counter-probability of </tspan><tspan x="15" y="163.8" class="st10 st8">75% you will not be audited and </tspan><tspan x="15" y="176.4" class="st10 st8">you can keep the entire income </tspan><tspan x="15" y="189" class="st10 st8">(1200 ECU).</tspan></text>
<rect x="439.5" y="143.6" class="st9" width="169.4" height="214.7"/>
<text transform="matrix(1 0 0 1 439.5428 151.1097)"><tspan x="0" y="0" class="st10 st8">You can form two expectations. </tspan><tspan x="0" y="25.2" class="st7 st8">For outcome 1 - no audit - the </tspan><tspan x="0" y="37.8" class="st7 st8">expected value is:</tspan><tspan x="0" y="50.4" class="st7 st8">0.25 * 480 = 120 ECU.</tspan><tspan x="105.4" y="50.4" class="st10 st8"> </tspan></text>
<line class="st0" x1="473.6" y1="219.9" x2="473.6" y2="262.4"/>
<polygon points="473.6,260 475.6,260 474.6,261.8 473.6,263.5 472.5,261.8 471.5,260 "/>
<text transform="matrix(1 0 0 1 437.7241 283.27)"><tspan x="0" y="0" class="st7 st8">Expectation 1:</tspan><tspan x="14.6" y="12.6" class="st7 st8">120 ECU</tspan></text>
</svg>
